G75*
%MOIN*%
%OFA0B0*%
%FSLAX25Y25*%
%IPPOS*%
%LPD*%
%AMOC8*
5,1,8,0,0,1.08239X$1,22.5*
%
%ADD10C,0.00800*%
%ADD11C,0.00787*%
%ADD12C,0.00000*%
D10*
X0016870Y0164242D02*
X0396791Y0164242D01*
D11*
X0029672Y0010228D02*
X0029776Y0010496D01*
X0029874Y0010766D01*
X0029965Y0011039D01*
X0030050Y0011313D01*
X0030128Y0011590D01*
X0030199Y0011869D01*
X0030264Y0012149D01*
X0030321Y0012430D01*
X0030372Y0012713D01*
X0030416Y0012997D01*
X0030453Y0013282D01*
X0030483Y0013568D01*
X0030506Y0013855D01*
X0030522Y0014142D01*
X0030531Y0014429D01*
X0030533Y0014717D01*
X0030528Y0015004D01*
X0030516Y0015291D01*
X0030497Y0015578D01*
X0030471Y0015865D01*
X0030439Y0016150D01*
X0030399Y0016435D01*
X0030352Y0016719D01*
X0030299Y0017001D01*
X0030239Y0017282D01*
X0030171Y0017562D01*
X0030098Y0017839D01*
X0030017Y0018115D01*
X0029930Y0018389D01*
X0029836Y0018661D01*
X0029735Y0018930D01*
X0029628Y0019197D01*
X0029515Y0019461D01*
X0029395Y0019722D01*
X0029269Y0019981D01*
X0029136Y0020236D01*
X0028998Y0020488D01*
X0028853Y0020736D01*
X0028702Y0020981D01*
X0028546Y0021222D01*
X0028383Y0021459D01*
X0028215Y0021693D01*
X0028042Y0021922D01*
X0027862Y0022146D01*
X0027678Y0022367D01*
X0027488Y0022583D01*
X0027293Y0022794D01*
X0027093Y0023000D01*
X0026887Y0023201D01*
X0026677Y0023398D01*
X0026463Y0023589D01*
X0026244Y0023775D01*
X0026020Y0023955D01*
X0025792Y0024130D01*
X0025560Y0024300D01*
X0025323Y0024464D01*
X0025083Y0024622D01*
X0024839Y0024774D01*
X0024592Y0024920D01*
X0024341Y0025060D01*
X0024086Y0025194D01*
X0023829Y0025322D01*
X0023568Y0025443D01*
X0023305Y0025558D01*
X0023039Y0025667D01*
X0022770Y0025769D01*
X0022499Y0025864D01*
X0022225Y0025953D01*
X0021950Y0026035D01*
X0021673Y0026111D01*
X0021393Y0026180D01*
X0021113Y0026242D01*
X0020831Y0026297D01*
X0020547Y0026345D01*
X0020263Y0026387D01*
X0019977Y0026421D01*
X0019691Y0026449D01*
X0019404Y0026469D01*
X0019117Y0026483D01*
X0018830Y0026489D01*
X0018542Y0026489D01*
X0018255Y0026482D01*
X0017968Y0026467D01*
X0017681Y0026446D01*
X0017395Y0026418D01*
X0017110Y0026382D01*
X0016826Y0026340D01*
X0016870Y0026447D02*
X0016870Y0164242D01*
X0121201Y0030384D02*
X0192028Y0043825D01*
X0192107Y0043760D02*
X0192147Y0044047D01*
X0192195Y0044334D01*
X0192250Y0044619D01*
X0192312Y0044902D01*
X0192381Y0045184D01*
X0192457Y0045465D01*
X0192540Y0045743D01*
X0192629Y0046019D01*
X0192725Y0046293D01*
X0192828Y0046565D01*
X0192938Y0046834D01*
X0193054Y0047100D01*
X0193176Y0047363D01*
X0193306Y0047623D01*
X0193441Y0047880D01*
X0193583Y0048133D01*
X0193730Y0048383D01*
X0193884Y0048630D01*
X0194044Y0048872D01*
X0194210Y0049110D01*
X0194381Y0049345D01*
X0194559Y0049575D01*
X0194742Y0049800D01*
X0194930Y0050021D01*
X0195124Y0050237D01*
X0195323Y0050449D01*
X0195527Y0050655D01*
X0195736Y0050857D01*
X0195950Y0051053D01*
X0196169Y0051244D01*
X0196392Y0051430D01*
X0196620Y0051610D01*
X0196852Y0051784D01*
X0197088Y0051953D01*
X0197329Y0052115D01*
X0197573Y0052272D01*
X0197821Y0052423D01*
X0198073Y0052567D01*
X0198328Y0052706D01*
X0198587Y0052838D01*
X0198849Y0052964D01*
X0199113Y0053083D01*
X0199381Y0053196D01*
X0199651Y0053302D01*
X0199924Y0053401D01*
X0200199Y0053494D01*
X0200477Y0053580D01*
X0200756Y0053659D01*
X0201037Y0053731D01*
X0201320Y0053797D01*
X0201604Y0053855D01*
X0201890Y0053906D01*
X0202177Y0053951D01*
X0202465Y0053988D01*
X0202754Y0054018D01*
X0203043Y0054041D01*
X0203333Y0054057D01*
X0203624Y0054066D01*
X0203914Y0054068D01*
X0204204Y0054062D01*
X0204494Y0054050D01*
X0204784Y0054030D01*
X0205073Y0054004D01*
X0205362Y0053970D01*
X0205649Y0053929D01*
X0205935Y0053881D01*
X0206220Y0053826D01*
X0206504Y0053764D01*
X0206786Y0053695D01*
X0207067Y0053620D01*
X0207345Y0053537D01*
X0207621Y0053448D01*
X0207895Y0053351D01*
X0208167Y0053249D01*
X0208436Y0053139D01*
X0208702Y0053023D01*
X0208965Y0052900D01*
X0209225Y0052771D01*
X0209482Y0052636D01*
X0209736Y0052495D01*
X0209985Y0052347D01*
X0210232Y0052193D01*
X0210474Y0052033D01*
X0210713Y0051867D01*
X0210947Y0051696D01*
X0211177Y0051519D01*
X0211402Y0051336D01*
X0211623Y0051148D01*
X0211840Y0050954D01*
X0212051Y0050755D01*
X0212258Y0050551D01*
X0212459Y0050342D01*
X0212656Y0050128D01*
X0212847Y0049909D01*
X0213032Y0049686D01*
X0213212Y0049458D01*
X0213387Y0049226D01*
X0213555Y0048990D01*
X0213718Y0048749D01*
X0213875Y0048505D01*
X0214026Y0048257D01*
X0214170Y0048005D01*
X0214309Y0047750D01*
X0214441Y0047491D01*
X0214567Y0047229D01*
X0214686Y0046965D01*
X0214799Y0046697D01*
X0214905Y0046427D01*
X0215004Y0046154D01*
X0215097Y0045879D01*
X0215183Y0045602D01*
X0215262Y0045322D01*
X0215335Y0045041D01*
X0215400Y0044758D01*
X0215458Y0044474D01*
X0215510Y0044188D01*
X0215554Y0043901D01*
X0215592Y0043613D01*
X0215622Y0043324D01*
X0216028Y0043825D02*
X0286555Y0030384D01*
X0286555Y0010699D01*
X0377106Y0010699D01*
X0377839Y0010881D02*
X0377747Y0011152D01*
X0377662Y0011426D01*
X0377584Y0011702D01*
X0377512Y0011979D01*
X0377447Y0012259D01*
X0377389Y0012539D01*
X0377337Y0012821D01*
X0377293Y0013105D01*
X0377255Y0013389D01*
X0377225Y0013674D01*
X0377201Y0013960D01*
X0377184Y0014246D01*
X0377175Y0014532D01*
X0377172Y0014819D01*
X0377176Y0015106D01*
X0377188Y0015392D01*
X0377206Y0015678D01*
X0377231Y0015964D01*
X0377263Y0016249D01*
X0377302Y0016533D01*
X0377348Y0016816D01*
X0377401Y0017097D01*
X0377461Y0017378D01*
X0377528Y0017657D01*
X0377601Y0017934D01*
X0377681Y0018209D01*
X0377768Y0018482D01*
X0377861Y0018753D01*
X0377961Y0019022D01*
X0378068Y0019288D01*
X0378181Y0019552D01*
X0378300Y0019812D01*
X0378426Y0020070D01*
X0378558Y0020324D01*
X0378696Y0020576D01*
X0378840Y0020823D01*
X0378990Y0021068D01*
X0379146Y0021308D01*
X0379308Y0021545D01*
X0379476Y0021777D01*
X0379649Y0022006D01*
X0379828Y0022230D01*
X0380012Y0022450D01*
X0380201Y0022665D01*
X0380396Y0022875D01*
X0380596Y0023081D01*
X0380801Y0023282D01*
X0381010Y0023477D01*
X0381224Y0023668D01*
X0381443Y0023853D01*
X0381666Y0024033D01*
X0381894Y0024207D01*
X0382126Y0024376D01*
X0382361Y0024539D01*
X0382601Y0024696D01*
X0382845Y0024848D01*
X0383092Y0024993D01*
X0383342Y0025133D01*
X0383596Y0025266D01*
X0383853Y0025393D01*
X0384113Y0025513D01*
X0384376Y0025628D01*
X0384642Y0025735D01*
X0384910Y0025837D01*
X0385181Y0025932D01*
X0385453Y0026020D01*
X0385728Y0026101D01*
X0386005Y0026176D01*
X0386283Y0026244D01*
X0386564Y0026305D01*
X0386845Y0026359D01*
X0387128Y0026407D01*
X0387412Y0026447D01*
X0387696Y0026481D01*
X0387982Y0026508D01*
X0388268Y0026527D01*
X0388554Y0026540D01*
X0388841Y0026546D01*
X0389127Y0026544D01*
X0389414Y0026536D01*
X0389700Y0026521D01*
X0389986Y0026499D01*
X0390271Y0026469D01*
X0390556Y0026433D01*
X0390839Y0026390D01*
X0391122Y0026340D01*
X0390886Y0026447D02*
X0390886Y0101250D01*
X0396791Y0101250D01*
X0396791Y0164242D01*
X0121201Y0030384D02*
X0121201Y0010699D01*
X0030650Y0010699D01*
D12*
X0095217Y0020935D02*
X0095219Y0021032D01*
X0095225Y0021129D01*
X0095235Y0021225D01*
X0095249Y0021321D01*
X0095267Y0021417D01*
X0095288Y0021511D01*
X0095314Y0021605D01*
X0095343Y0021697D01*
X0095377Y0021788D01*
X0095413Y0021878D01*
X0095454Y0021966D01*
X0095498Y0022052D01*
X0095546Y0022137D01*
X0095597Y0022219D01*
X0095651Y0022300D01*
X0095709Y0022378D01*
X0095770Y0022453D01*
X0095833Y0022526D01*
X0095900Y0022597D01*
X0095970Y0022664D01*
X0096042Y0022729D01*
X0096117Y0022790D01*
X0096195Y0022849D01*
X0096274Y0022904D01*
X0096356Y0022956D01*
X0096440Y0023004D01*
X0096526Y0023049D01*
X0096614Y0023091D01*
X0096703Y0023129D01*
X0096794Y0023163D01*
X0096886Y0023193D01*
X0096979Y0023220D01*
X0097074Y0023242D01*
X0097169Y0023261D01*
X0097265Y0023276D01*
X0097361Y0023287D01*
X0097458Y0023294D01*
X0097555Y0023297D01*
X0097652Y0023296D01*
X0097749Y0023291D01*
X0097845Y0023282D01*
X0097941Y0023269D01*
X0098037Y0023252D01*
X0098132Y0023231D01*
X0098225Y0023207D01*
X0098318Y0023178D01*
X0098410Y0023146D01*
X0098500Y0023110D01*
X0098588Y0023071D01*
X0098675Y0023027D01*
X0098760Y0022981D01*
X0098843Y0022930D01*
X0098924Y0022877D01*
X0099002Y0022820D01*
X0099079Y0022760D01*
X0099152Y0022697D01*
X0099223Y0022631D01*
X0099291Y0022562D01*
X0099357Y0022490D01*
X0099419Y0022416D01*
X0099478Y0022339D01*
X0099534Y0022260D01*
X0099587Y0022178D01*
X0099637Y0022095D01*
X0099682Y0022009D01*
X0099725Y0021922D01*
X0099764Y0021833D01*
X0099799Y0021743D01*
X0099830Y0021651D01*
X0099857Y0021558D01*
X0099881Y0021464D01*
X0099901Y0021369D01*
X0099917Y0021273D01*
X0099929Y0021177D01*
X0099937Y0021080D01*
X0099941Y0020983D01*
X0099941Y0020887D01*
X0099937Y0020790D01*
X0099929Y0020693D01*
X0099917Y0020597D01*
X0099901Y0020501D01*
X0099881Y0020406D01*
X0099857Y0020312D01*
X0099830Y0020219D01*
X0099799Y0020127D01*
X0099764Y0020037D01*
X0099725Y0019948D01*
X0099682Y0019861D01*
X0099637Y0019775D01*
X0099587Y0019692D01*
X0099534Y0019610D01*
X0099478Y0019531D01*
X0099419Y0019454D01*
X0099357Y0019380D01*
X0099291Y0019308D01*
X0099223Y0019239D01*
X0099152Y0019173D01*
X0099079Y0019110D01*
X0099002Y0019050D01*
X0098924Y0018993D01*
X0098843Y0018940D01*
X0098760Y0018889D01*
X0098675Y0018843D01*
X0098588Y0018799D01*
X0098500Y0018760D01*
X0098410Y0018724D01*
X0098318Y0018692D01*
X0098225Y0018663D01*
X0098132Y0018639D01*
X0098037Y0018618D01*
X0097941Y0018601D01*
X0097845Y0018588D01*
X0097749Y0018579D01*
X0097652Y0018574D01*
X0097555Y0018573D01*
X0097458Y0018576D01*
X0097361Y0018583D01*
X0097265Y0018594D01*
X0097169Y0018609D01*
X0097074Y0018628D01*
X0096979Y0018650D01*
X0096886Y0018677D01*
X0096794Y0018707D01*
X0096703Y0018741D01*
X0096614Y0018779D01*
X0096526Y0018821D01*
X0096440Y0018866D01*
X0096356Y0018914D01*
X0096274Y0018966D01*
X0096195Y0019021D01*
X0096117Y0019080D01*
X0096042Y0019141D01*
X0095970Y0019206D01*
X0095900Y0019273D01*
X0095833Y0019344D01*
X0095770Y0019417D01*
X0095709Y0019492D01*
X0095651Y0019570D01*
X0095597Y0019651D01*
X0095546Y0019733D01*
X0095498Y0019818D01*
X0095454Y0019904D01*
X0095413Y0019992D01*
X0095377Y0020082D01*
X0095343Y0020173D01*
X0095314Y0020265D01*
X0095288Y0020359D01*
X0095267Y0020453D01*
X0095249Y0020549D01*
X0095235Y0020645D01*
X0095225Y0020741D01*
X0095219Y0020838D01*
X0095217Y0020935D01*
X0095217Y0044557D02*
X0095219Y0044654D01*
X0095225Y0044751D01*
X0095235Y0044847D01*
X0095249Y0044943D01*
X0095267Y0045039D01*
X0095288Y0045133D01*
X0095314Y0045227D01*
X0095343Y0045319D01*
X0095377Y0045410D01*
X0095413Y0045500D01*
X0095454Y0045588D01*
X0095498Y0045674D01*
X0095546Y0045759D01*
X0095597Y0045841D01*
X0095651Y0045922D01*
X0095709Y0046000D01*
X0095770Y0046075D01*
X0095833Y0046148D01*
X0095900Y0046219D01*
X0095970Y0046286D01*
X0096042Y0046351D01*
X0096117Y0046412D01*
X0096195Y0046471D01*
X0096274Y0046526D01*
X0096356Y0046578D01*
X0096440Y0046626D01*
X0096526Y0046671D01*
X0096614Y0046713D01*
X0096703Y0046751D01*
X0096794Y0046785D01*
X0096886Y0046815D01*
X0096979Y0046842D01*
X0097074Y0046864D01*
X0097169Y0046883D01*
X0097265Y0046898D01*
X0097361Y0046909D01*
X0097458Y0046916D01*
X0097555Y0046919D01*
X0097652Y0046918D01*
X0097749Y0046913D01*
X0097845Y0046904D01*
X0097941Y0046891D01*
X0098037Y0046874D01*
X0098132Y0046853D01*
X0098225Y0046829D01*
X0098318Y0046800D01*
X0098410Y0046768D01*
X0098500Y0046732D01*
X0098588Y0046693D01*
X0098675Y0046649D01*
X0098760Y0046603D01*
X0098843Y0046552D01*
X0098924Y0046499D01*
X0099002Y0046442D01*
X0099079Y0046382D01*
X0099152Y0046319D01*
X0099223Y0046253D01*
X0099291Y0046184D01*
X0099357Y0046112D01*
X0099419Y0046038D01*
X0099478Y0045961D01*
X0099534Y0045882D01*
X0099587Y0045800D01*
X0099637Y0045717D01*
X0099682Y0045631D01*
X0099725Y0045544D01*
X0099764Y0045455D01*
X0099799Y0045365D01*
X0099830Y0045273D01*
X0099857Y0045180D01*
X0099881Y0045086D01*
X0099901Y0044991D01*
X0099917Y0044895D01*
X0099929Y0044799D01*
X0099937Y0044702D01*
X0099941Y0044605D01*
X0099941Y0044509D01*
X0099937Y0044412D01*
X0099929Y0044315D01*
X0099917Y0044219D01*
X0099901Y0044123D01*
X0099881Y0044028D01*
X0099857Y0043934D01*
X0099830Y0043841D01*
X0099799Y0043749D01*
X0099764Y0043659D01*
X0099725Y0043570D01*
X0099682Y0043483D01*
X0099637Y0043397D01*
X0099587Y0043314D01*
X0099534Y0043232D01*
X0099478Y0043153D01*
X0099419Y0043076D01*
X0099357Y0043002D01*
X0099291Y0042930D01*
X0099223Y0042861D01*
X0099152Y0042795D01*
X0099079Y0042732D01*
X0099002Y0042672D01*
X0098924Y0042615D01*
X0098843Y0042562D01*
X0098760Y0042511D01*
X0098675Y0042465D01*
X0098588Y0042421D01*
X0098500Y0042382D01*
X0098410Y0042346D01*
X0098318Y0042314D01*
X0098225Y0042285D01*
X0098132Y0042261D01*
X0098037Y0042240D01*
X0097941Y0042223D01*
X0097845Y0042210D01*
X0097749Y0042201D01*
X0097652Y0042196D01*
X0097555Y0042195D01*
X0097458Y0042198D01*
X0097361Y0042205D01*
X0097265Y0042216D01*
X0097169Y0042231D01*
X0097074Y0042250D01*
X0096979Y0042272D01*
X0096886Y0042299D01*
X0096794Y0042329D01*
X0096703Y0042363D01*
X0096614Y0042401D01*
X0096526Y0042443D01*
X0096440Y0042488D01*
X0096356Y0042536D01*
X0096274Y0042588D01*
X0096195Y0042643D01*
X0096117Y0042702D01*
X0096042Y0042763D01*
X0095970Y0042828D01*
X0095900Y0042895D01*
X0095833Y0042966D01*
X0095770Y0043039D01*
X0095709Y0043114D01*
X0095651Y0043192D01*
X0095597Y0043273D01*
X0095546Y0043355D01*
X0095498Y0043440D01*
X0095454Y0043526D01*
X0095413Y0043614D01*
X0095377Y0043704D01*
X0095343Y0043795D01*
X0095314Y0043887D01*
X0095288Y0043981D01*
X0095267Y0044075D01*
X0095249Y0044171D01*
X0095235Y0044267D01*
X0095225Y0044363D01*
X0095219Y0044460D01*
X0095217Y0044557D01*
M02*
