G75*
%MOIN*%
%OFA0B0*%
%FSLAX25Y25*%
%IPPOS*%
%LPD*%
%AMOC8*
5,1,8,0,0,1.08239X$1,22.5*
%
%ADD10R,0.09000X0.09000*%
%ADD11OC8,0.07800*%
%ADD12R,0.04337X0.04731*%
%ADD13R,0.03550X0.03550*%
%ADD14R,0.02565X0.05124*%
%ADD15R,0.04731X0.04337*%
%ADD16C,0.01344*%
%ADD17R,0.04731X0.07880*%
%ADD18R,0.06699X0.05912*%
%ADD19R,0.05912X0.08668*%
%ADD20C,0.07000*%
%ADD21R,0.12998X0.12998*%
%ADD22R,0.20085X0.12211*%
%ADD23R,0.05400X0.10400*%
%ADD24R,0.07880X0.05912*%
%ADD25R,0.05912X0.07487*%
%ADD26R,0.06306X0.03156*%
%ADD27R,0.05912X0.04337*%
%ADD28R,0.12211X0.04337*%
%ADD29R,0.01975X0.05715*%
%ADD30R,0.07487X0.07880*%
%ADD31C,0.05420*%
%ADD32R,0.09258X0.09258*%
%ADD33R,0.10400X0.20400*%
%ADD34R,0.12211X0.06306*%
%ADD35C,0.05124*%
%ADD36C,0.00500*%
D10*
X0218528Y0090825D03*
D11*
X0370059Y0095423D03*
X0380059Y0095423D03*
X0380059Y0085423D03*
X0370059Y0085423D03*
X0370059Y0075423D03*
X0380059Y0075423D03*
D12*
X0314407Y0043358D03*
X0314407Y0036665D03*
X0306189Y0036665D03*
X0306189Y0043358D03*
X0256122Y0082352D03*
X0256122Y0089045D03*
X0247622Y0089045D03*
X0247622Y0082352D03*
X0227902Y0122510D03*
X0217902Y0122510D03*
X0217902Y0129203D03*
X0227902Y0129203D03*
X0199902Y0129203D03*
X0189902Y0129203D03*
X0181902Y0129203D03*
X0181902Y0122510D03*
X0189902Y0122510D03*
X0199902Y0122510D03*
X0114528Y0091171D03*
X0104528Y0091171D03*
X0104528Y0084478D03*
X0114528Y0084478D03*
X0087028Y0109478D03*
X0077028Y0109478D03*
X0077028Y0116171D03*
X0087028Y0116171D03*
X0062028Y0091171D03*
X0062028Y0084478D03*
X0037028Y0084478D03*
X0027028Y0084478D03*
X0027028Y0091171D03*
X0037028Y0091171D03*
X0130778Y0049671D03*
X0130778Y0042978D03*
D13*
X0179902Y0145904D03*
X0189902Y0145904D03*
X0199902Y0145904D03*
X0199902Y0151809D03*
X0189902Y0151809D03*
X0179902Y0151809D03*
X0217902Y0151809D03*
X0227902Y0151809D03*
X0227902Y0145904D03*
X0217902Y0145904D03*
D14*
X0080768Y0092943D03*
X0073287Y0092943D03*
X0073287Y0082706D03*
X0077028Y0082706D03*
X0080768Y0082706D03*
X0053268Y0082706D03*
X0049528Y0082706D03*
X0045787Y0082706D03*
X0045787Y0092943D03*
X0053268Y0092943D03*
D15*
X0141181Y0096575D03*
X0147874Y0096575D03*
X0147874Y0088632D03*
X0141181Y0088632D03*
X0141181Y0105207D03*
X0147874Y0105207D03*
X0152681Y0050825D03*
X0159374Y0050825D03*
X0144374Y0050575D03*
X0137681Y0050575D03*
X0137681Y0042325D03*
X0144374Y0042325D03*
X0268807Y0101474D03*
X0275500Y0101474D03*
G36*
X0310743Y0099676D02*
X0314087Y0096332D01*
X0311021Y0093266D01*
X0307677Y0096610D01*
X0310743Y0099676D01*
G37*
G36*
X0315475Y0094943D02*
X0318819Y0091599D01*
X0315753Y0088533D01*
X0312409Y0091877D01*
X0315475Y0094943D01*
G37*
G36*
X0306720Y0071804D02*
X0310064Y0075148D01*
X0313130Y0072082D01*
X0309786Y0068738D01*
X0306720Y0071804D01*
G37*
G36*
X0301988Y0067071D02*
X0305332Y0070415D01*
X0308398Y0067349D01*
X0305054Y0064005D01*
X0301988Y0067071D01*
G37*
D16*
X0298817Y0070433D02*
X0297342Y0072071D01*
X0298817Y0070433D02*
X0298642Y0070275D01*
X0297167Y0071913D01*
X0297342Y0072071D01*
X0297433Y0071618D02*
X0297750Y0071618D01*
X0298805Y0073388D02*
X0300280Y0071750D01*
X0300105Y0071592D01*
X0298630Y0073230D01*
X0298805Y0073388D01*
X0298896Y0072935D02*
X0299213Y0072935D01*
X0300206Y0074650D02*
X0301681Y0073012D01*
X0301506Y0072854D01*
X0300031Y0074492D01*
X0300206Y0074650D01*
X0300297Y0074197D02*
X0300614Y0074197D01*
X0301669Y0075967D02*
X0303144Y0074329D01*
X0302969Y0074171D01*
X0301494Y0075809D01*
X0301669Y0075967D01*
X0301760Y0075514D02*
X0302077Y0075514D01*
X0301835Y0079130D02*
X0303473Y0080605D01*
X0301835Y0079130D02*
X0301677Y0079305D01*
X0303315Y0080780D01*
X0303473Y0080605D01*
X0303326Y0080473D02*
X0302974Y0080473D01*
X0302156Y0082068D02*
X0300518Y0080593D01*
X0300360Y0080768D01*
X0301998Y0082243D01*
X0302156Y0082068D01*
X0302009Y0081936D02*
X0301657Y0081936D01*
X0300894Y0083469D02*
X0299256Y0081994D01*
X0299098Y0082169D01*
X0300736Y0083644D01*
X0300894Y0083469D01*
X0300747Y0083337D02*
X0300395Y0083337D01*
X0299577Y0084932D02*
X0297939Y0083457D01*
X0297781Y0083632D01*
X0299419Y0085107D01*
X0299577Y0084932D01*
X0299430Y0084800D02*
X0299078Y0084800D01*
X0298316Y0086333D02*
X0296678Y0084858D01*
X0296520Y0085033D01*
X0298158Y0086508D01*
X0298316Y0086333D01*
X0298169Y0086201D02*
X0297817Y0086201D01*
X0296998Y0087796D02*
X0295360Y0086321D01*
X0295202Y0086496D01*
X0296840Y0087971D01*
X0296998Y0087796D01*
X0296851Y0087664D02*
X0296499Y0087664D01*
X0295523Y0089434D02*
X0293885Y0087959D01*
X0295523Y0089434D02*
X0295681Y0089259D01*
X0294043Y0087784D01*
X0293885Y0087959D01*
X0295182Y0089127D02*
X0295534Y0089127D01*
X0294262Y0090835D02*
X0292624Y0089360D01*
X0294262Y0090835D02*
X0294420Y0090660D01*
X0292782Y0089185D01*
X0292624Y0089360D01*
X0293921Y0090528D02*
X0294273Y0090528D01*
X0292945Y0092298D02*
X0291307Y0090823D01*
X0292945Y0092298D02*
X0293103Y0092123D01*
X0291465Y0090648D01*
X0291307Y0090823D01*
X0292604Y0091991D02*
X0292956Y0091991D01*
X0291683Y0093699D02*
X0290045Y0092224D01*
X0291683Y0093699D02*
X0291841Y0093524D01*
X0290203Y0092049D01*
X0290045Y0092224D01*
X0291342Y0093392D02*
X0291694Y0093392D01*
X0290366Y0095162D02*
X0288728Y0093687D01*
X0290366Y0095162D02*
X0290524Y0094987D01*
X0288886Y0093512D01*
X0288728Y0093687D01*
X0290025Y0094855D02*
X0290377Y0094855D01*
X0285565Y0093853D02*
X0284090Y0095491D01*
X0285565Y0093853D02*
X0285390Y0093695D01*
X0283915Y0095333D01*
X0284090Y0095491D01*
X0284181Y0095038D02*
X0284498Y0095038D01*
X0282627Y0094174D02*
X0284102Y0092536D01*
X0283927Y0092378D01*
X0282452Y0094016D01*
X0282627Y0094174D01*
X0282718Y0093721D02*
X0283035Y0093721D01*
X0281226Y0092912D02*
X0282701Y0091274D01*
X0282526Y0091116D01*
X0281051Y0092754D01*
X0281226Y0092912D01*
X0281317Y0092459D02*
X0281634Y0092459D01*
X0279763Y0091595D02*
X0281238Y0089957D01*
X0281063Y0089799D01*
X0279588Y0091437D01*
X0279763Y0091595D01*
X0279854Y0091142D02*
X0280171Y0091142D01*
X0278362Y0090333D02*
X0279837Y0088695D01*
X0279662Y0088537D01*
X0278187Y0090175D01*
X0278362Y0090333D01*
X0278453Y0089880D02*
X0278770Y0089880D01*
X0276899Y0089016D02*
X0278374Y0087378D01*
X0278199Y0087220D01*
X0276724Y0088858D01*
X0276899Y0089016D01*
X0276990Y0088563D02*
X0277307Y0088563D01*
X0275261Y0087541D02*
X0276736Y0085903D01*
X0275261Y0087541D02*
X0275436Y0087699D01*
X0276911Y0086061D01*
X0276736Y0085903D01*
X0275844Y0087246D02*
X0275527Y0087246D01*
X0273860Y0086279D02*
X0275335Y0084641D01*
X0273860Y0086279D02*
X0274035Y0086437D01*
X0275510Y0084799D01*
X0275335Y0084641D01*
X0274443Y0085984D02*
X0274126Y0085984D01*
X0272397Y0084962D02*
X0273872Y0083324D01*
X0272397Y0084962D02*
X0272572Y0085120D01*
X0274047Y0083482D01*
X0273872Y0083324D01*
X0272980Y0084667D02*
X0272663Y0084667D01*
X0270996Y0083701D02*
X0272471Y0082063D01*
X0270996Y0083701D02*
X0271171Y0083859D01*
X0272646Y0082221D01*
X0272471Y0082063D01*
X0271579Y0083406D02*
X0271262Y0083406D01*
X0269533Y0082384D02*
X0271008Y0080746D01*
X0269533Y0082384D02*
X0269708Y0082542D01*
X0271183Y0080904D01*
X0271008Y0080746D01*
X0270116Y0082089D02*
X0269799Y0082089D01*
X0270842Y0077582D02*
X0269204Y0076107D01*
X0270842Y0077582D02*
X0271000Y0077407D01*
X0269362Y0075932D01*
X0269204Y0076107D01*
X0270501Y0077275D02*
X0270853Y0077275D01*
X0272159Y0076120D02*
X0270521Y0074645D01*
X0272159Y0076120D02*
X0272317Y0075945D01*
X0270679Y0074470D01*
X0270521Y0074645D01*
X0271818Y0075813D02*
X0272170Y0075813D01*
X0273421Y0074719D02*
X0271783Y0073244D01*
X0273421Y0074719D02*
X0273579Y0074544D01*
X0271941Y0073069D01*
X0271783Y0073244D01*
X0273080Y0074412D02*
X0273432Y0074412D01*
X0274738Y0073256D02*
X0273100Y0071781D01*
X0274738Y0073256D02*
X0274896Y0073081D01*
X0273258Y0071606D01*
X0273100Y0071781D01*
X0274397Y0072949D02*
X0274749Y0072949D01*
X0276000Y0071855D02*
X0274362Y0070380D01*
X0276000Y0071855D02*
X0276158Y0071680D01*
X0274520Y0070205D01*
X0274362Y0070380D01*
X0275659Y0071548D02*
X0276011Y0071548D01*
X0277317Y0070392D02*
X0275679Y0068917D01*
X0277317Y0070392D02*
X0277475Y0070217D01*
X0275837Y0068742D01*
X0275679Y0068917D01*
X0276976Y0070085D02*
X0277328Y0070085D01*
X0278792Y0068754D02*
X0277154Y0067279D01*
X0276996Y0067454D01*
X0278634Y0068929D01*
X0278792Y0068754D01*
X0278645Y0068622D02*
X0278293Y0068622D01*
X0280053Y0067353D02*
X0278415Y0065878D01*
X0278257Y0066053D01*
X0279895Y0067528D01*
X0280053Y0067353D01*
X0279906Y0067221D02*
X0279554Y0067221D01*
X0281371Y0065890D02*
X0279733Y0064415D01*
X0279575Y0064590D01*
X0281213Y0066065D01*
X0281371Y0065890D01*
X0281224Y0065758D02*
X0280872Y0065758D01*
X0282632Y0064489D02*
X0280994Y0063014D01*
X0280836Y0063189D01*
X0282474Y0064664D01*
X0282632Y0064489D01*
X0282485Y0064357D02*
X0282133Y0064357D01*
X0283949Y0063026D02*
X0282311Y0061551D01*
X0282153Y0061726D01*
X0283791Y0063201D01*
X0283949Y0063026D01*
X0283802Y0062894D02*
X0283450Y0062894D01*
X0287112Y0062860D02*
X0288587Y0061222D01*
X0287112Y0062860D02*
X0287287Y0063018D01*
X0288762Y0061380D01*
X0288587Y0061222D01*
X0287695Y0062565D02*
X0287378Y0062565D01*
X0288575Y0064177D02*
X0290050Y0062539D01*
X0288575Y0064177D02*
X0288750Y0064335D01*
X0290225Y0062697D01*
X0290050Y0062539D01*
X0289158Y0063882D02*
X0288841Y0063882D01*
X0289976Y0065439D02*
X0291451Y0063801D01*
X0289976Y0065439D02*
X0290151Y0065597D01*
X0291626Y0063959D01*
X0291451Y0063801D01*
X0290559Y0065144D02*
X0290242Y0065144D01*
X0291439Y0066756D02*
X0292914Y0065118D01*
X0291439Y0066756D02*
X0291614Y0066914D01*
X0293089Y0065276D01*
X0292914Y0065118D01*
X0292022Y0066461D02*
X0291705Y0066461D01*
X0292840Y0068017D02*
X0294315Y0066379D01*
X0292840Y0068017D02*
X0293015Y0068175D01*
X0294490Y0066537D01*
X0294315Y0066379D01*
X0293423Y0067722D02*
X0293106Y0067722D01*
X0294303Y0069334D02*
X0295778Y0067696D01*
X0294303Y0069334D02*
X0294478Y0069492D01*
X0295953Y0067854D01*
X0295778Y0067696D01*
X0294886Y0069039D02*
X0294569Y0069039D01*
X0295941Y0070810D02*
X0297416Y0069172D01*
X0297241Y0069014D01*
X0295766Y0070652D01*
X0295941Y0070810D01*
X0296032Y0070357D02*
X0296349Y0070357D01*
D17*
X0257461Y0099478D03*
X0248406Y0099478D03*
X0248406Y0114045D03*
X0257461Y0114045D03*
D18*
X0092028Y0093337D03*
X0092028Y0082313D03*
X0062028Y0107313D03*
X0062028Y0118337D03*
D19*
X0037539Y0022510D03*
X0055256Y0022510D03*
X0055256Y0061880D03*
X0037539Y0061880D03*
X0352500Y0061880D03*
X0370217Y0061880D03*
X0370217Y0022510D03*
X0352500Y0022510D03*
D20*
X0296713Y0111093D03*
X0286870Y0111093D03*
X0277028Y0111093D03*
X0130256Y0111093D03*
X0120413Y0111093D03*
X0110571Y0111093D03*
D21*
X0102697Y0138652D03*
X0138130Y0138652D03*
X0269154Y0138652D03*
X0304587Y0138652D03*
D22*
X0220350Y0108230D03*
X0187406Y0108230D03*
D23*
X0259528Y0043067D03*
X0269528Y0041325D03*
X0279528Y0040325D03*
D24*
X0387835Y0106900D03*
X0391378Y0158868D03*
D25*
X0336260Y0136821D03*
X0336260Y0113199D03*
D26*
X0374843Y0136427D03*
X0376417Y0140758D03*
X0376417Y0132096D03*
X0377992Y0127766D03*
X0376417Y0123435D03*
X0377992Y0119104D03*
X0376417Y0114774D03*
X0376417Y0110443D03*
D27*
X0168858Y0114065D03*
X0160197Y0110325D03*
X0168858Y0106585D03*
D28*
X0030778Y0127825D03*
X0030778Y0137825D03*
X0030778Y0147825D03*
D29*
X0305059Y0026951D03*
X0307618Y0026951D03*
X0310177Y0026951D03*
X0312736Y0026951D03*
X0315295Y0026951D03*
D30*
X0314508Y0016419D03*
X0305846Y0016419D03*
D31*
X0300630Y0028230D03*
X0319724Y0028230D03*
D32*
X0324252Y0016419D03*
X0296102Y0016419D03*
D33*
X0073278Y0152825D03*
X0058278Y0152825D03*
D34*
X0083799Y0053612D03*
X0111358Y0046919D03*
X0083799Y0029596D03*
X0083799Y0015423D03*
X0111358Y0019360D03*
D35*
X0097579Y0020935D03*
X0097579Y0044557D03*
D36*
X0026996Y0153415D02*
X0027558Y0153809D01*
X0028043Y0154294D01*
X0028437Y0154856D01*
X0028727Y0155478D01*
X0028905Y0156141D01*
X0028965Y0156825D01*
X0028905Y0157508D01*
X0028727Y0158171D01*
X0028437Y0158793D01*
X0028043Y0159355D01*
X0027558Y0159841D01*
X0026996Y0160234D01*
X0026374Y0160524D01*
X0025711Y0160702D01*
X0025028Y0160762D01*
X0024344Y0160702D01*
X0023681Y0160524D01*
X0023059Y0160234D01*
X0022497Y0159841D01*
X0022012Y0159355D01*
X0021618Y0158793D01*
X0021328Y0158171D01*
X0021150Y0157508D01*
X0021091Y0156825D01*
X0021150Y0156141D01*
X0021328Y0155478D01*
X0021618Y0154856D01*
X0022012Y0154294D01*
X0022497Y0153809D01*
X0023059Y0153415D01*
X0023681Y0153125D01*
X0024344Y0152948D01*
X0025028Y0152888D01*
X0025711Y0152948D01*
X0026374Y0153125D01*
X0026996Y0153415D01*
X0026910Y0153375D02*
X0023145Y0153375D01*
X0022432Y0153874D02*
X0027623Y0153874D01*
X0028098Y0154372D02*
X0021957Y0154372D01*
X0021611Y0154871D02*
X0028444Y0154871D01*
X0028676Y0155369D02*
X0021379Y0155369D01*
X0021224Y0155868D02*
X0028831Y0155868D01*
X0028924Y0156366D02*
X0021131Y0156366D01*
X0021094Y0156865D02*
X0028961Y0156865D01*
X0028917Y0157363D02*
X0021138Y0157363D01*
X0021245Y0157862D02*
X0028810Y0157862D01*
X0028639Y0158360D02*
X0021416Y0158360D01*
X0021664Y0158859D02*
X0028391Y0158859D01*
X0028042Y0159357D02*
X0022014Y0159357D01*
X0022519Y0159856D02*
X0027537Y0159856D01*
X0026739Y0160354D02*
X0023316Y0160354D01*
X0379328Y0035171D02*
X0379150Y0034508D01*
X0379091Y0033825D01*
X0379150Y0033141D01*
X0379328Y0032478D01*
X0379618Y0031856D01*
X0380012Y0031294D01*
X0380497Y0030809D01*
X0381059Y0030415D01*
X0381681Y0030125D01*
X0382344Y0029948D01*
X0383028Y0029888D01*
X0383711Y0029948D01*
X0384374Y0030125D01*
X0384996Y0030415D01*
X0385558Y0030809D01*
X0386043Y0031294D01*
X0386437Y0031856D01*
X0386727Y0032478D01*
X0386905Y0033141D01*
X0386965Y0033825D01*
X0386905Y0034508D01*
X0386727Y0035171D01*
X0386437Y0035793D01*
X0386043Y0036355D01*
X0385558Y0036841D01*
X0384996Y0037234D01*
X0384374Y0037524D01*
X0383711Y0037702D01*
X0383028Y0037762D01*
X0382344Y0037702D01*
X0381681Y0037524D01*
X0381059Y0037234D01*
X0380497Y0036841D01*
X0380012Y0036355D01*
X0379618Y0035793D01*
X0379328Y0035171D01*
X0379354Y0035228D02*
X0386701Y0035228D01*
X0386846Y0034730D02*
X0379210Y0034730D01*
X0379126Y0034231D02*
X0386929Y0034231D01*
X0386956Y0033733D02*
X0379099Y0033733D01*
X0379142Y0033234D02*
X0386913Y0033234D01*
X0386796Y0032735D02*
X0379259Y0032735D01*
X0379440Y0032237D02*
X0386615Y0032237D01*
X0386355Y0031738D02*
X0379701Y0031738D01*
X0380066Y0031240D02*
X0385989Y0031240D01*
X0385462Y0030741D02*
X0380593Y0030741D01*
X0381429Y0030243D02*
X0384627Y0030243D01*
X0386468Y0035727D02*
X0379587Y0035727D01*
X0379920Y0036225D02*
X0386135Y0036225D01*
X0385675Y0036724D02*
X0380380Y0036724D01*
X0381042Y0037222D02*
X0385014Y0037222D01*
X0383499Y0037721D02*
X0382557Y0037721D01*
M02*
